<svg xmlns="http://www.w3.org/2000/svg" xmlns:xlink="http://www.w3.org/1999/xlink" xmlns:inkscape="http://www.inkscape.org/namespaces/inkscape" version="1.1" width="566.9291" height="283.4646" viewBox="0 0 566.9291 283.4646">
<g inkscape:groupmode="layer" inkscape:label="Warstwa 1">
<text fill="#475c6e" xml:space="preserve" transform="matrix(1 0 -0 1 0 283.4646)" font-size="34" font-family="Calibri"><tspan y="-130.11" x="185.8119 203.9732 218.9671 236.81711 252.5988 270.5168 283.81083 299.28083 307.10084 314.78483 333.24684 351.09684 365.47883 383.32884 391.01283 420.08283 427.90284 444.83485 452.96086 466.25486 481.72486">Bydgoski Ruch Miejski</tspan></text>
</g>
<g inkscape:groupmode="layer" inkscape:label="Warstwa 1">
<path transform="matrix(1,0,0,-1,0,283.4646)" d="M94.5692 115.3689H94.5632C94.5023 115.3689 94.4402 115.3738 94.3792 115.3837L79.702 117.7367C81.5221 114.3278 83.7232 111.1547 86.2401 108.2628 92.9151 110.2017 103.462 113.3977 109.671 115.4449ZM89.7673 178.8718C84.0932 173.5288 79.6382 166.9068 76.8781 159.4579L90.9831 158.8669C90.8802 160.5569 90.3152 169.8157 89.7673 178.8718ZM113.8723 115.4659C109.3173 113.7609 95.6523 109.5849 87.2422 107.1349 96.565 97.0379 109.9083 90.7089 124.7332 90.7089 126.4901 90.7089 128.2252 90.7977 129.9351 90.9709L133.2471 115.5628ZM97.7672 157.2208 76.4133 158.1148C74.6691 152.9719 73.7101 147.4659 73.7101 141.7329 73.7101 134.0768 75.4072 126.8218 78.4281 120.3049L94.0011 117.8079ZM144.3231 94.6117C154.527 98.8588 163.0511 106.3239 168.6382 115.7409L146.9231 115.6317C145.834 106.8089 144.9111 99.3589 144.3231 94.6117ZM169.0033 167.0899C167.701 167.3198 166.3551 167.5568 165.0172 167.7917L162.0082 143.0728C166.477 142.5538 171.3302 141.9418 175.746 141.2799 175.7472 141.4318 175.7571 141.5809 175.7571 141.7329 175.7571 150.9659 173.2921 159.6178 169.0033 167.0899ZM158.9581 118.0259 169.9421 118.0809C173.3831 124.6459 175.4342 132.0497 175.7112 139.9088 171.265 140.5777 166.3603 141.1977 161.8432 141.7218ZM134.6221 115.5699 131.3331 91.1477C134.9742 91.6189 138.4951 92.4659 141.853 93.6618 142.4222 98.2417 143.3982 106.1218 144.57 115.6198ZM93.3242 158.7688 122.2733 157.5558C122.4972 158.1369 122.811 158.6849 123.2371 159.1648 124.1691 160.2159 125.4552 160.8409 126.8572 160.9257 127.2263 160.9498 127.5871 160.9339 127.9392 160.8829 128.787 162.6517 130.0402 163.5018 131.3631 164.2589 132.5092 164.9157 132.6742 165.4577 132.6132 166.8609 132.5701 167.8589 132.37 172.6027 132.2291 175.9428L127.9692 175.6857C127.5032 173.3068 126.1341 172.4128 124.1821 171.8997 121.9241 171.3047 114.1821 170.8379 111.6383 170.6839 111.541 170.6788 111.4461 170.6757 111.3511 170.6757 108.6962 170.6757 106.539 172.8969 106.2162 174.9957 105.9931 176.4397 104.754 182.4897 104.7413 182.5509 104.6662 182.9188 104.9031 183.2788 105.2711 183.3537 105.6421 183.4268 105.999 183.1918 106.0741 182.8239 106.126 182.5739 107.3333 176.6809 107.5612 175.2029 107.7732 173.8298 109.434 171.9167 111.5382 172.0417 118.292 172.4488 122.4232 172.8439 123.8352 173.2147 125.6791 173.7009 126.9672 174.3667 126.7622 178.5348 126.7092 179.6159 126.3773 183.0617 125.2191 192.7437 125.0561 192.7457 124.8962 192.7559 124.7332 192.7559 112.2661 192.7559 100.8471 188.2789 91.9851 180.8507 92.6161 170.4118 93.3131 158.9859 93.3262 158.7818 93.3262 158.7779 93.3242 158.7739 93.3242 158.7688ZM144.858 117.9547C146.2992 129.6439 147.9951 143.4549 149.5791 156.4869L144.8303 156.6317C144.4541 156.6428 144.159 156.9569 144.1701 157.3328 144.1823 157.7089 144.5043 158.0009 144.8722 157.9929L149.7441 157.8438C150.2473 161.9827 150.7371 166.0317 151.2023 169.8968L133.844 169.9517C133.9053 168.5117 133.954 167.3558 133.9733 166.9198 134.0362 165.4597 133.9342 164.1628 132.0392 163.0777 130.9011 162.4269 129.9492 161.7817 129.27 160.4979 131.0272 159.7289 132.3031 158.0199 132.4253 155.9908 132.5092 154.5877 132.042 153.2367 131.11 152.1848 130.2661 151.2317 129.1252 150.6529 127.8763 150.4848 127.868 150.3669 127.8592 150.2507 127.8502 150.1359 129.3333 147.3968 131.9423 142.9909 133.052 142.0999 133.6442 141.6249 135.1191 140.7019 138.7891 138.9988L139.0552 138.8738C139.6341 138.5909 139.873 137.8919 139.5901 137.3128 139.388 136.8998 138.973 136.6588 138.541 136.6588 138.3693 136.6588 138.1941 136.6977 138.0291 136.7787L137.8071 136.8819C134.6462 138.3489 132.6132 139.4609 131.5922 140.2798 130.5051 141.1529 128.84 143.7508 127.5432 145.9437 127.3122 142.6388 127.1551 139.9059 127.0321 136.8349 127.9111 135.6548 131.0091 131.5117 132.7422 129.4177 134.7792 126.9547 135.1681 120.6167 135.2412 117.9068ZM99.1281 157.1638 97.4112 139.1907 114.9843 138.0359C115.2332 139.6437 115.8542 142.5988 117.2401 144.5389 118.8641 146.8117 123.7442 149.5689 125.5402 150.5358 125.5442 150.5869 125.5493 150.6407 125.5521 150.6917 123.5511 151.3457 122.055 153.1519 121.9221 155.3587 121.9051 155.6447 121.926 155.9279 121.9541 156.2077ZM150.6263 144.2988C153.195 144.0428 156.7392 143.6737 160.6552 143.2278L163.6753 168.0259C159.4621 168.7598 155.5211 169.4288 153.5321 169.7278 152.5742 161.7687 151.5112 153.0238 150.4463 144.3169ZM155.086 182.7448C154.6631 179.1677 154.1951 175.2429 153.6942 171.0768 156.6632 170.6357 163.4043 169.4608 168.0863 168.6339 164.6751 174.1178 160.2592 178.9098 155.086 182.7448ZM129.3642 153.7328C129.8832 154.3178 130.1431 155.0699 130.0961 155.8508 130.0031 157.3929 128.7221 158.6018 127.1781 158.6018 127.1183 158.6018 127.0582 158.6007 126.9981 158.5967 126.2171 158.5497 125.5022 158.2019 124.9832 157.6168 124.4642 157.0317 124.2043 156.2797 124.251 155.4987 124.3483 153.8969 125.7361 152.6649 127.3493 152.7528 128.1302 152.7999 128.8451 153.1468 129.3642 153.7328ZM128.1263 177.0588 132.1722 177.3028C132.1211 178.5158 132.0863 179.3319 132.0863 179.3319L133.446 179.3889C133.446 179.3889 133.6343 174.9368 133.7871 171.3138L151.3661 171.2577C151.9291 175.9459 152.4532 180.3387 152.9161 184.2639 145.3241 189.3047 136.3051 192.3608 126.5941 192.7089 127.5262 184.9048 128.0492 180.0819 128.122 178.6017 128.1492 178.0398 128.1492 177.5288 128.1263 177.0588ZM160.4911 141.8769C156.5872 142.3219 153.0533 142.6887 150.4902 142.9449 150.4012 142.9537 150.3442 142.9588 150.2813 142.9659 149.218 134.2757 148.1601 125.6678 147.2111 117.9669L157.5862 118.0188ZM95.3592 117.7067 114.6101 117.8028C116.7551 119.0069 119.9582 122.3898 121.3421 125.5878 122.7413 128.8199 124.4551 135.6849 124.6893 136.6328 124.8333 140.3507 125.026 143.5357 125.3333 147.7477 123.1211 146.4749 120.1241 144.5618 119.1382 143.1828 117.5661 140.9817 117.1681 136.7379 117.1641 136.6948 117.1091 136.0908 116.6012 135.6327 116.0031 135.6327 115.9773 135.6327 115.9512 135.6338 115.9251 135.6347L97.1892 136.8677ZM130.9442 127.9307C129.6641 129.4778 127.7133 132.0409 126.3773 133.8157 125.689 131.2047 124.5283 127.0738 123.4831 124.6609 122.4672 122.3118 120.5232 119.7249 118.4791 117.8229L132.908 117.8949C132.8102 121.3588 132.2493 126.3518 130.9442 127.9307" fill="#e61a68"/>
</g>
</svg>
