<?xml version="1.0" encoding="UTF-8" standalone="no"?>
<svg
   xmlns:dc="http://purl.org/dc/elements/1.1/"
   xmlns:cc="http://creativecommons.org/ns#"
   xmlns:rdf="http://www.w3.org/1999/02/22-rdf-syntax-ns#"
   xmlns:svg="http://www.w3.org/2000/svg"
   xmlns="http://www.w3.org/2000/svg"
   viewBox="0 0 1071.6133 976.32532"
   height="976.32532"
   width="1071.6133"
   xml:space="preserve"
   id="svg2"
   version="1.1"><metadata
     id="metadata8"><rdf:RDF><cc:Work
         rdf:about=""><dc:format>image/svg+xml</dc:format><dc:type
           rdf:resource="http://purl.org/dc/dcmitype/StillImage" /></cc:Work></rdf:RDF></metadata><defs
     id="defs6"><clipPath
       id="clipPath28"
       clipPathUnits="userSpaceOnUse"><path
         id="path26"
         d="M 0,732.244 H 803.71 V 0 H 0 Z" /></clipPath><clipPath
       id="clipPath66"
       clipPathUnits="userSpaceOnUse"><path
         id="path64"
         d="M 0,732.244 H 803.71 V 0 H 0 Z" /></clipPath></defs><g
     transform="matrix(1.3333333,0,0,-1.3333333,0,976.32533)"
     id="g10"><path
       id="path12"
       style="fill:#ffffff;fill-opacity:1;fill-rule:nonzero;stroke:none"
       d="M 1.476,0 H 803.711 V 732.245 H 1.476 Z" /><g
       transform="translate(379.3843,230.1123)"
       id="g14"><path
         id="path16"
         style="fill:none;stroke:#231f20;stroke-width:10;stroke-linecap:butt;stroke-linejoin:miter;stroke-miterlimit:10;stroke-dasharray:none;stroke-opacity:1"
         d="M 0,0 -30.125,-42.872" /></g><g
       transform="translate(427.9644,230.1123)"
       id="g18"><path
         id="path20"
         style="fill:none;stroke:#231f20;stroke-width:10;stroke-linecap:butt;stroke-linejoin:miter;stroke-miterlimit:10;stroke-dasharray:none;stroke-opacity:1"
         d="M 0,0 30.125,-42.872" /></g><g
       id="g22"><g
         clip-path="url(#clipPath28)"
         id="g24"><g
           transform="translate(588.1421,358.6577)"
           id="g30"><path
             id="path32"
             style="fill:#d78320;fill-opacity:1;fill-rule:evenodd;stroke:none"
             d="m 0,0 c -20.155,0.297 -37.51,4.957 -53.699,14.088 -9.91,5.59 -18.93,12.375 -27.448,19.86 -8.151,7.16 -16.207,14.426 -24.362,21.578 -9.171,8.042 -19.156,15.014 -29.138,21.993 -5.436,3.8 -10.902,7.586 -16.061,11.743 -8.33,6.711 -15.354,14.611 -20.549,24.059 -6.267,11.398 -10.305,23.543 -12.746,36.293 -1.842,9.618 -2.951,19.281 -2.755,29.075 0.123,6.162 0.066,12.345 0.59,18.476 0.45,5.269 1.447,10.509 2.49,15.705 2.576,12.823 7.195,24.896 14.187,35.964 6.492,10.276 14.589,19.031 24.955,25.61 9.345,5.93 19.388,10.07 30.223,12.174 7.47,1.45 15.053,1.657 22.625,0.852 12.508,-1.329 24.479,-4.861 36.179,-9.306 6.45,-2.451 12.285,-6.073 17.796,-10.247 8.924,-6.758 16.21,-15.065 22.978,-23.882 6.557,-8.543 12.974,-17.196 19.673,-25.624 5.592,-7.033 11.878,-13.444 18.522,-19.511 9.287,-8.483 19.185,-16.22 28.978,-24.091 8.822,-7.091 17.518,-14.342 25.314,-22.589 7.512,-7.946 13.881,-16.701 18.141,-26.815 3.171,-7.532 4.973,-15.436 5.279,-23.644 0.487,-13.109 -2.233,-25.566 -7.341,-37.6 C 87.689,49.689 78.701,37.264 67.132,26.704 55.892,16.445 42.903,9.132 28.412,4.545 22.299,2.609 15.996,1.421 9.617,0.751 5.896,0.36 2.156,0.164 0,0" /></g><g
           transform="translate(309.1265,414.0308)"
           id="g34"><path
             id="path36"
             style="fill:#2c6897;fill-opacity:1;fill-rule:evenodd;stroke:none"
             d="m 0,0 c 0.121,-12.523 -3.775,-23.773 -11.375,-33.699 -5.05,-6.596 -11.469,-11.696 -18.79,-15.565 -5.791,-3.061 -11.719,-5.865 -17.625,-8.703 -7.226,-3.473 -13.849,-7.82 -19.685,-13.323 -5.753,-5.425 -10.687,-11.557 -15.441,-17.86 -4.601,-6.098 -9.075,-12.321 -14.746,-17.525 -2.9,-2.661 -6.086,-4.896 -9.832,-6.199 -4.253,-1.476 -8.573,-1.464 -12.904,-0.32 -6.956,1.839 -11.784,6.547 -15.864,12.093 -5.434,7.382 -7.753,15.922 -8.563,24.924 -1.098,12.218 1.273,23.943 5.388,35.349 1.796,4.982 4.089,9.785 6.157,14.669 0.396,0.934 0.829,1.854 1.18,2.804 4.838,13.083 11.683,25.017 20.716,35.639 9.584,11.271 20.919,20.249 34.689,26.003 10.884,4.548 22.14,7.087 33.959,6.528 9.81,-0.463 18.919,-3.274 26.757,-9.365 4.214,-3.275 7.623,-7.328 10.261,-12.034 C -1.637,16.136 0.051,8.31 0,0" /></g><g
           transform="translate(675.2163,272.5283)"
           id="g38"><path
             id="path40"
             style="fill:#d06125;fill-opacity:1;fill-rule:evenodd;stroke:none"
             d="m 0,0 c 0.043,-26.275 -21.592,-46.848 -46.736,-46.804 -24.72,0.042 -46.527,19.887 -46.601,46.428 -0.078,27.338 22.023,46.808 46.359,47.005 C -21.143,46.837 -0.027,25.687 0,0" /></g><path
           id="path42"
           style="fill:#231f20;fill-opacity:1;fill-rule:nonzero;stroke:none"
           d="m 307.27,411.11 h -25.123 v 48.486 h 25.123 z m 0,-70.123 h -25.123 v 48.486 h 25.123 z m 258.359,-74.91 c 0,0 2.247,153.976 0,180.291 -2.805,32.855 -18.541,59.536 -24.836,67.062 -3.126,3.738 -28.962,34.484 -73.755,34.484 -44.793,0 -67.871,-11.904 -75.397,-15.325 -5.097,-2.317 -38.218,-23.399 -38.218,-23.399 v 34.043 H 184.33 v -83.427 h 55.431 l -0.56,-194.288 -54.871,-0.561 V 184.33 h 169.093 v 244.402 c 0,0 12.827,8.109 20.569,12.178 9.702,5.099 28.184,10.148 34.184,10.954 9.167,1.232 26.16,-0.007 33.823,-7.26 13.239,-12.531 11.648,-53.107 11.648,-53.107 l 0.56,-207.167 H 619.38 v 81.747 z" /><g
           transform="translate(472.8599,266.3145)"
           id="g44"><path
             id="path46"
             style="fill:none;stroke:#231f20;stroke-width:10;stroke-linecap:butt;stroke-linejoin:miter;stroke-miterlimit:10;stroke-dasharray:none;stroke-opacity:1"
             d="M 0,0 H -98.139 V -39.854" /></g><g
           transform="translate(472.8599,346.02)"
           id="g48"><path
             id="path50"
             style="fill:none;stroke:#231f20;stroke-width:10;stroke-linecap:butt;stroke-linejoin:miter;stroke-miterlimit:10;stroke-dasharray:none;stroke-opacity:1"
             d="M 0,0 H -40.153 V -39.853 H -71.498 0" /></g><g
           transform="translate(472.8599,226.4609)"
           id="g52"><path
             id="path54"
             style="fill:none;stroke:#231f20;stroke-width:10;stroke-linecap:butt;stroke-linejoin:miter;stroke-miterlimit:10;stroke-dasharray:none;stroke-opacity:1"
             d="M 0,0 H -124.868 V -38.813" /></g><g
           transform="translate(406.3823,306.167)"
           id="g56"><path
             id="path58"
             style="fill:none;stroke:#231f20;stroke-width:10;stroke-linecap:butt;stroke-linejoin:miter;stroke-miterlimit:10;stroke-dasharray:none;stroke-opacity:1"
             d="M 0,0 V -39.853" /></g></g></g><g
       id="g60"><g
         clip-path="url(#clipPath66)"
         id="g62"><g
           transform="translate(432.0112,355.1021)"
           id="g68"><path
             id="path70"
             style="fill:#231f20;fill-opacity:1;fill-rule:nonzero;stroke:none"
             d="m 0,0 c -0.413,7.563 -2.743,13.305 -4.327,16.644 -1.583,3.339 -7.445,7.779 -19.091,7.118 -11.645,-0.66 -23.232,-6.914 -23.232,-6.914 L -58.081,10.046 V -132.547 H 0.72 Z" /></g></g></g></g></svg>