<?xml version="1.0" standalone="no"?>
<!DOCTYPE svg PUBLIC "-//W3C//DTD SVG 20010904//EN"
 "http://www.w3.org/TR/2001/REC-SVG-20010904/DTD/svg10.dtd">
<svg version="1.0" xmlns="http://www.w3.org/2000/svg"
 width="2000.000000pt" height="1053.000000pt" viewBox="0 0 2000.000000 1053.000000"
 preserveAspectRatio="xMidYMid meet">

<g transform="translate(0.000000,1053.000000) scale(0.100000,-0.100000)"
fill="#000000" stroke="none">
<path d="M3345 9084 c-364 -49 -712 -192 -1010 -413 -112 -84 -295 -257 -390
-372 -142 -169 -285 -412 -369 -627 -271 -690 -166 -1508 267 -2088 337 -452
802 -774 1117 -774 80 0 198 29 271 66 63 31 171 132 205 190 51 86 66 151 71
299 6 154 15 185 63 210 40 21 83 19 130 -5 59 -30 70 -60 70 -187 0 -180 42
-292 155 -411 184 -196 433 -214 750 -55 308 155 669 499 864 824 147 247 253
561 292 869 16 123 16 399 0 520 -69 520 -290 979 -641 1330 -346 346 -786
558 -1293 625 -144 18 -413 18 -552 -1z m650 -88 c134 -25 306 -72 409 -113
502 -197 900 -570 1142 -1068 157 -325 219 -594 218 -955 0 -368 -68 -656
-229 -966 -176 -340 -407 -594 -737 -811 -210 -138 -382 -198 -547 -191 -120
5 -185 34 -266 119 -92 96 -105 136 -134 415 -14 137 -54 200 -144 230 -95 31
-191 0 -240 -77 -28 -46 -34 -80 -56 -303 -8 -78 -17 -113 -41 -162 -37 -75
-120 -156 -200 -193 -50 -24 -66 -26 -180 -26 -106 0 -136 4 -195 24 -228 78
-476 251 -715 498 -136 140 -210 238 -296 388 -429 747 -363 1676 169 2384
337 449 843 744 1407 821 107 14 531 5 635 -14z"/>
<path d="M3572 8443 c-153 -179 -213 -316 -214 -488 0 -76 5 -107 32 -188 36
-106 104 -220 180 -299 73 -76 93 -68 195 72 183 251 203 509 57 748 -43 72
-167 212 -187 212 -7 0 -35 -26 -63 -57z m133 -121 c51 -69 111 -189 125 -251
18 -78 8 -210 -23 -294 -25 -67 -99 -199 -143 -254 l-22 -28 -46 50 c-26 27
-64 84 -86 126 -116 222 -86 482 76 667 53 61 64 60 119 -16z"/>
<path d="M2879 7913 c-39 -101 -50 -272 -24 -382 48 -201 205 -367 411 -432
39 -12 78 -20 86 -17 26 10 60 136 65 238 16 300 -183 544 -500 614 -23 6 -29
2 -38 -21z m199 -124 c88 -43 164 -121 207 -211 45 -94 59 -170 52 -283 -7
-111 -12 -128 -41 -119 -134 41 -228 107 -292 201 -63 95 -79 156 -79 298 0
66 3 128 8 139 10 25 61 17 145 -25z"/>
<path d="M4320 7924 c-200 -54 -377 -215 -438 -399 -40 -120 -37 -248 8 -368
36 -95 35 -95 125 -62 205 74 349 227 400 425 28 107 6 407 -30 416 -6 1 -35
-4 -65 -12z m24 -111 c4 -9 10 -51 13 -93 19 -252 -120 -468 -344 -533 -39
-12 -54 -13 -60 -4 -13 21 -16 221 -4 279 33 156 140 283 291 345 66 27 96 29
104 6z"/>
<path d="M2440 7658 c-48 -125 -64 -215 -51 -289 14 -83 51 -159 101 -209 54
-54 173 -131 207 -133 24 -2 31 6 58 59 99 196 61 398 -102 543 -46 41 -157
111 -176 111 -3 0 -20 -37 -37 -82z m121 -56 c152 -97 214 -278 146 -426 l-27
-58 -41 24 c-61 34 -134 119 -154 179 -13 39 -16 73 -12 143 5 91 21 166 36
166 4 0 27 -13 52 -28z"/>
<path d="M4741 7709 c-94 -47 -183 -135 -229 -227 -36 -74 -37 -79 -37 -186 0
-105 2 -115 32 -176 46 -94 55 -103 89 -90 46 18 160 98 195 137 17 20 46 67
63 103 28 59 31 74 31 165 0 83 -5 115 -29 187 -41 127 -39 125 -115 87z m51
-136 c7 -32 13 -96 13 -143 0 -73 -4 -93 -28 -141 -28 -59 -92 -126 -146 -153
l-31 -16 -27 52 c-23 45 -27 66 -27 133 0 68 4 88 27 135 16 30 45 72 65 94
35 36 117 96 133 96 4 0 13 -26 21 -57z"/>
<path d="M3561 7191 c-177 -177 -172 -427 15 -612 75 -74 73 -74 147 17 162
199 156 441 -14 598 -33 31 -67 56 -75 56 -8 0 -40 -26 -73 -59z m141 -106
c26 -30 54 -95 61 -141 13 -83 -30 -219 -96 -298 l-23 -29 -38 44 c-67 76 -91
141 -91 239 0 97 20 146 83 212 l36 38 25 -23 c14 -12 33 -31 43 -42z"/>
<path d="M4297 7115 c-239 -97 -370 -331 -316 -565 16 -71 60 -160 78 -160 51
1 196 94 269 174 75 83 114 169 120 264 6 113 -41 290 -82 305 -7 3 -38 -5
-69 -18z m60 -130 c15 -43 19 -162 7 -210 -24 -101 -118 -210 -222 -259 -34
-16 -64 -27 -67 -24 -3 2 -10 41 -15 86 -19 146 12 261 92 348 42 46 148 107
177 102 8 -2 20 -21 28 -43z"/>
<path d="M2890 7099 c-45 -74 -63 -141 -63 -229 0 -105 24 -176 88 -265 56
-79 127 -136 230 -187 92 -44 89 -45 126 51 53 139 47 267 -16 400 -58 120
-197 235 -312 257 -28 6 -34 3 -53 -27z m151 -98 c63 -41 124 -108 151 -166
20 -44 23 -65 23 -187 0 -88 -4 -141 -11 -148 -18 -18 -128 43 -189 103 -28
29 -61 73 -74 99 -59 123 -39 328 32 328 13 0 43 -13 68 -29z"/>
<path d="M2203 7074 c-22 -5 -23 -10 -23 -98 0 -159 41 -267 140 -367 93 -94
214 -142 358 -142 46 0 88 5 94 11 20 20 13 190 -11 264 -48 149 -180 271
-344 314 -58 15 -180 25 -214 18z m230 -104 c154 -48 250 -166 272 -337 3 -26
8 -58 11 -70 4 -21 1 -23 -39 -23 -61 0 -150 25 -219 62 -108 57 -176 157
-197 288 -19 117 -21 114 50 106 33 -4 88 -16 122 -26z"/>
<path d="M4924 7070 c-115 -17 -206 -61 -290 -141 -97 -94 -144 -211 -144
-361 0 -75 1 -79 26 -88 14 -6 61 -10 104 -10 278 0 480 217 480 516 l0 82
-31 6 c-37 7 -76 6 -145 -4z m93 -150 c-12 -183 -127 -316 -314 -365 -31 -8
-77 -15 -100 -15 -41 0 -43 2 -43 29 0 144 87 297 210 369 51 31 157 61 214
61 l39 1 -6 -80z"/>
<path d="M3473 6436 c-155 -49 -243 -201 -213 -368 14 -77 44 -148 63 -148 35
0 139 65 185 114 66 73 87 138 79 255 -3 47 -11 103 -18 124 -14 41 -26 44
-96 23z m41 -113 c15 -97 -5 -177 -62 -236 -34 -35 -91 -71 -99 -63 -4 4 -9
46 -11 94 -3 77 -1 92 20 132 23 43 104 110 133 110 7 0 15 -17 19 -37z"/>
<path d="M3704 6394 c-10 -34 -18 -93 -18 -140 0 -72 4 -89 32 -147 46 -93
135 -164 229 -183 30 -6 32 -4 43 34 35 131 36 211 5 304 -32 91 -127 168
-232 184 l-42 6 -17 -58z m142 -66 c29 -20 57 -50 72 -78 21 -40 23 -55 20
-128 -3 -45 -9 -87 -15 -93 -6 -6 -26 1 -59 23 -84 57 -121 160 -98 277 8 39
20 39 80 -1z"/>
<path d="M2521 6381 c-83 -22 -90 -33 -69 -115 39 -148 140 -291 245 -348 119
-64 281 -76 406 -28 64 24 66 29 43 118 -36 135 -131 269 -234 329 -106 62
-257 79 -391 44z m316 -90 c100 -47 171 -131 219 -257 24 -63 24 -64 3 -74
-67 -36 -199 -31 -289 12 -65 32 -159 131 -202 213 -54 106 -55 111 -16 124
93 29 198 22 285 -18z"/>
<path d="M4452 6382 c-123 -44 -216 -137 -288 -287 -53 -111 -63 -163 -37
-187 27 -24 87 -38 199 -45 86 -5 111 -3 170 16 147 45 253 166 320 365 13 38
24 77 24 87 0 54 -276 90 -388 51z m275 -72 c32 -11 32 -12 18 -49 -46 -133
-130 -233 -240 -287 -61 -30 -84 -36 -141 -37 -38 0 -91 5 -117 13 -45 12 -48
15 -42 39 12 49 66 155 102 199 46 56 124 107 193 127 60 16 173 14 227 -5z"/>
<path d="M15500 7100 l0 -1490 100 0 100 0 0 1490 0 1490 -100 0 -100 0 0
-1490z"/>
<path d="M17980 8530 c0 -17 7 -20 50 -20 l50 0 0 -145 c0 -138 1 -145 20
-145 19 0 20 7 20 145 l0 145 50 0 c43 0 50 3 50 20 0 19 -7 20 -120 20 -113
0 -120 -1 -120 -20z"/>
<path d="M18267 8543 c-3 -5 -7 -51 -11 -103 -4 -52 -9 -124 -12 -158 -6 -63
-6 -64 17 -60 20 2 24 9 26 43 2 22 6 78 9 124 l6 84 42 -124 c56 -167 64
-167 125 6 l46 130 2 -50 c2 -27 5 -87 9 -132 5 -77 7 -83 27 -83 l22 0 -10
162 -10 163 -29 0 c-29 0 -31 -3 -74 -127 l-44 -127 -44 127 c-24 70 -44 128
-44 130 0 6 -49 1 -53 -5z"/>
<path d="M7405 8479 c-264 -38 -494 -190 -598 -395 -53 -104 -72 -189 -72
-319 0 -138 21 -224 82 -333 94 -171 323 -336 603 -436 198 -71 393 -186 476
-280 56 -63 109 -172 123 -250 63 -345 -111 -620 -444 -703 -107 -26 -351 -24
-467 5 -116 29 -228 73 -308 121 l-65 40 -37 -81 c-21 -45 -38 -86 -38 -93 0
-16 155 -96 240 -124 268 -87 582 -94 810 -16 213 72 368 205 456 390 48 102
66 175 71 306 18 401 -180 643 -700 856 -230 94 -374 177 -458 265 -182 190
-184 517 -6 707 51 54 144 109 231 137 197 63 505 33 683 -67 29 -16 55 -29
58 -29 7 0 87 171 83 176 -2 1 -31 17 -66 34 -161 80 -449 119 -657 89z"/>
<path d="M8856 8425 c-140 -50 -183 -248 -78 -358 77 -82 197 -83 276 -3 88
87 89 226 2 312 -59 60 -125 76 -200 49z"/>
<path d="M10420 7669 c-85 -13 -188 -49 -257 -91 -74 -44 -178 -147 -233 -231
l-45 -68 -6 138 c-4 76 -7 155 -8 176 l-1 37 -101 0 -101 0 7 -32 c4 -18 9
-475 12 -1015 l5 -983 104 0 104 0 0 650 c0 731 1 742 70 885 78 161 221 290
372 336 58 18 87 21 174 17 94 -4 110 -8 178 -41 124 -62 212 -178 258 -344
22 -76 22 -93 26 -790 l3 -713 104 0 104 0 3 708 3 707 27 73 c69 191 238 352
408 391 57 13 192 14 249 0 212 -49 346 -240 381 -544 5 -51 10 -357 10 -712
l0 -623 105 0 105 0 0 648 c0 383 -4 682 -10 732 -16 129 -46 235 -97 340 -38
79 -59 108 -127 175 -131 130 -258 180 -451 178 -132 -2 -233 -25 -338 -80
-93 -48 -239 -190 -292 -285 l-38 -67 -38 77 c-127 260 -384 394 -669 351z"/>
<path d="M13950 7670 c-247 -34 -448 -155 -576 -347 l-41 -62 -7 46 c-3 25 -6
91 -6 147 0 56 -3 118 -6 139 l-7 37 -99 0 -100 0 6 -57 c4 -32 9 -676 12
-1430 l6 -1373 104 0 104 0 0 577 0 578 34 -51 c58 -86 169 -180 271 -229 139
-68 239 -88 410 -82 246 8 402 71 571 230 159 150 251 329 298 582 23 125 30
287 17 408 -49 454 -290 774 -653 866 -92 24 -248 33 -338 21z m275 -200 c181
-56 318 -181 411 -376 74 -155 89 -235 88 -474 -1 -188 -3 -213 -27 -305 -15
-55 -50 -147 -78 -205 -44 -88 -65 -117 -133 -185 -130 -131 -269 -187 -461
-188 -130 -1 -199 14 -314 70 -172 82 -304 243 -351 429 -17 67 -20 111 -20
340 0 278 7 341 51 460 84 227 275 397 504 448 92 21 236 14 330 -14z"/>
<path d="M17006 7669 c-95 -13 -238 -62 -320 -111 -82 -49 -203 -161 -261
-243 -136 -191 -207 -444 -206 -735 0 -172 17 -281 65 -416 53 -145 108 -235
211 -340 136 -138 274 -210 478 -249 146 -28 392 -17 577 25 104 24 250 79
250 94 0 6 -12 46 -26 88 l-26 78 -36 -19 c-123 -62 -300 -95 -512 -94 -125 0
-170 4 -231 21 -94 25 -197 76 -266 131 -148 118 -255 352 -269 586 -3 50 -7
102 -9 118 l-4 27 743 0 c669 0 744 2 750 16 9 24 7 161 -4 251 -60 477 -325
757 -737 777 -54 3 -129 0 -167 -5z m228 -184 c193 -36 327 -152 406 -349 28
-70 60 -230 60 -303 l0 -33 -631 0 -632 0 7 51 c10 76 53 205 97 289 142 275
397 402 693 345z"/>
<path d="M8820 6620 l0 -1010 100 0 100 0 0 1010 0 1010 -100 0 -100 0 0
-1010z"/>
<path d="M5380 4340 l-105 -99 71 0 70 -1 125 96 c68 53 126 98 128 100 2 2
-38 4 -90 4 l-94 0 -105 -100z"/>
<path d="M4131 4154 c-300 -65 -487 -346 -426 -639 55 -265 270 -435 550 -438
168 -1 292 44 401 146 114 106 162 208 171 367 22 376 -313 648 -696 564z
m244 -140 c118 -30 206 -103 259 -214 29 -61 31 -72 31 -180 0 -104 -3 -121
-27 -172 -145 -310 -605 -310 -751 0 -30 62 -32 75 -32 172 0 97 2 110 32 172
17 37 50 86 72 110 98 107 265 152 416 112z"/>
<path d="M5295 4164 c-16 -3 -57 -14 -90 -25 -133 -43 -204 -133 -213 -266 -4
-64 -1 -79 23 -128 46 -95 128 -139 374 -200 180 -45 241 -89 241 -174 0 -62
-27 -103 -87 -132 -43 -22 -61 -24 -173 -24 -112 1 -132 4 -193 28 -38 15 -89
40 -113 57 l-44 29 -30 -59 -30 -59 33 -24 c74 -56 199 -99 324 -112 160 -16
342 43 410 133 90 119 78 275 -28 366 -51 43 -111 67 -289 113 -202 52 -253
84 -266 165 -11 68 42 139 125 167 42 14 200 14 261 0 25 -5 71 -23 103 -39
l58 -29 25 55 c13 30 24 59 24 64 0 14 -64 44 -145 69 -69 22 -233 35 -300 25z"/>
<path d="M6350 4154 c-268 -57 -442 -287 -427 -564 12 -232 152 -415 372 -486
191 -62 418 -21 560 101 l40 34 -50 50 -50 51 -45 -36 c-206 -165 -527 -93
-638 144 -25 52 -27 68 -27 177 0 116 1 122 33 184 18 34 53 82 76 105 145
141 399 152 558 26 20 -17 41 -30 45 -30 5 0 29 21 53 46 l45 46 -45 40 c-117
106 -320 151 -500 112z"/>
<path d="M10010 4160 c-182 -33 -291 -147 -290 -305 2 -157 91 -231 365 -301
219 -56 275 -94 275 -183 0 -62 -27 -103 -87 -132 -43 -22 -61 -24 -173 -24
-139 1 -183 13 -293 79 l-58 35 -26 -53 c-14 -30 -23 -61 -20 -69 9 -23 101
-74 174 -97 160 -50 339 -46 458 9 81 37 119 72 149 134 72 147 24 292 -119
363 -30 14 -127 46 -216 69 -185 50 -246 81 -267 137 -21 55 -8 105 37 148 48
46 97 60 208 60 101 0 188 -20 251 -56 24 -14 45 -24 46 -22 1 1 13 29 26 62
23 57 23 59 5 72 -28 21 -122 54 -195 70 -70 15 -178 16 -250 4z"/>
<path d="M1590 3626 l0 -536 80 0 80 0 0 160 0 160 164 0 c90 0 185 4 212 9
139 27 241 96 291 198 38 79 45 211 15 296 -39 108 -115 177 -242 219 -58 19
-95 22 -332 26 l-268 4 0 -536z m585 359 c85 -44 120 -101 119 -199 0 -84 -25
-140 -78 -181 -59 -45 -113 -55 -298 -55 l-168 0 0 236 0 236 183 -4 c181 -3
184 -3 242 -33z"/>
<path d="M2677 4153 c-4 -3 -7 -244 -7 -535 l0 -528 80 0 80 0 0 160 0 160
167 -2 166 -3 111 -157 110 -158 83 0 c99 0 105 -21 -46 190 -61 85 -111 158
-111 161 0 3 19 14 42 25 63 28 132 103 159 171 29 75 32 203 5 281 -24 70
-100 153 -173 188 -89 42 -182 53 -434 54 -124 0 -229 -3 -232 -7z m568 -161
c27 -13 61 -33 74 -45 66 -61 81 -186 34 -277 -52 -99 -145 -129 -400 -130
l-123 0 0 241 0 241 183 -4 c164 -3 187 -6 232 -26z"/>
<path d="M7110 3625 l0 -535 75 0 75 0 0 535 0 535 -75 0 -75 0 0 -535z"/>
<path d="M7580 3625 l0 -535 390 0 390 0 0 65 0 65 -310 0 -310 0 0 170 0 170
265 0 265 0 0 70 0 70 -265 0 -265 0 0 160 0 160 300 0 301 0 -3 68 -3 67
-377 3 -378 2 0 -535z"/>
<path d="M8537 4153 c-4 -3 -7 -35 -7 -70 l0 -63 195 0 196 0 -3 -342 c-3
-336 -3 -344 -26 -386 -59 -111 -244 -108 -343 6 l-32 36 -44 -49 c-23 -27
-43 -54 -43 -59 0 -5 19 -27 42 -49 83 -79 212 -116 335 -97 121 19 190 69
237 169 20 44 21 63 24 479 l3 432 -264 0 c-145 0 -267 -3 -270 -7z"/>
<path d="M10740 3625 l0 -535 75 0 75 0 0 535 0 535 -75 0 -75 0 0 -535z"/>
<path d="M11210 3625 l0 -535 302 0 301 0 -41 -38 c-134 -124 -74 -303 101
-304 51 -1 122 16 140 31 4 4 1 24 -8 44 -13 32 -18 36 -35 27 -29 -15 -113
-12 -138 6 -17 11 -22 25 -22 56 0 55 31 93 114 142 l66 39 0 63 0 64 -310 0
-310 0 0 170 0 170 265 0 265 0 0 70 0 70 -265 0 -265 0 0 160 0 160 300 0
301 0 -3 68 -3 67 -377 3 -378 2 0 -535z"/>
<path d="M12640 3625 l0 -535 80 0 80 0 0 391 0 391 313 -389 312 -388 68 -3
67 -3 0 536 0 536 -77 -3 -78 -3 -5 -389 -5 -389 -315 391 -315 392 -62 0 -63
0 0 -535z"/>
<path d="M13880 3625 l0 -535 75 0 75 0 0 535 0 535 -75 0 -75 0 0 -535z"/>
<path d="M14350 3625 l0 -535 390 0 390 0 0 65 0 65 -315 0 -315 0 0 170 0
170 268 2 267 3 0 65 0 65 -267 3 -268 2 0 160 0 160 300 0 300 0 0 70 0 70
-375 0 -375 0 0 -535z"/>
<path d="M15780 3626 l0 -536 278 0 c311 0 345 5 472 67 255 124 353 451 215
722 -56 112 -168 201 -309 248 -79 26 -90 27 -368 31 l-288 4 0 -536z m550
384 c130 -25 247 -116 291 -227 19 -48 24 -77 24 -163 0 -97 -2 -110 -32 -172
-39 -83 -97 -142 -176 -179 -82 -37 -161 -49 -344 -49 l-153 0 0 400 0 400
169 0 c92 0 192 -5 221 -10z"/>
<path d="M17343 4148 c-8 -10 -319 -692 -459 -1006 l-24 -53 82 3 82 3 56 128
55 127 285 -2 285 -3 55 -127 55 -127 83 -1 82 0 -14 33 c-48 113 -461 1014
-469 1025 -6 7 -35 12 -77 12 -42 0 -71 -5 -77 -12z m191 -415 c58 -133 106
-244 106 -247 0 -3 -101 -6 -224 -6 l-224 0 112 254 c61 140 114 251 118 248
4 -4 54 -116 112 -249z"/>
<path d="M12640 2265 l0 -125 2650 0 2650 0 0 125 0 125 -2650 0 -2650 0 0
-125z"/>
</g>
</svg>
